<svg width="74" height="74" viewBox="0 0 74 74" fill="none" xmlns="http://www.w3.org/2000/svg">
<g clip-path="url(#clip0_3219_3)">
<path d="M27.4999 19.1514C13.9691 19.1514 2.99994 30.1205 2.99994 43.6514C2.99994 57.1822 13.9691 68.1514 27.4999 68.1514C41.0308 68.1514 51.9999 57.1822 51.9999 43.6514C51.9848 30.1269 41.0244 19.1665 27.4999 19.1514ZM27.4999 66.518C14.8711 66.518 4.63327 56.2802 4.63327 43.6514C4.63327 31.0225 14.8711 20.7847 27.4999 20.7847C40.1288 20.7847 50.3666 31.0225 50.3666 43.6514C50.3522 56.2742 40.1228 66.5037 27.4999 66.518Z" fill="#404040"/>
<path d="M16.1416 42.0995C16.197 42.1107 16.2536 42.1167 16.3099 42.1167C16.6959 42.1159 17.0288 41.8451 17.1078 41.4675C17.2103 40.9834 17.3466 40.5077 17.5161 40.0431C17.6194 39.768 17.5668 39.4585 17.3785 39.2328C17.1903 39.0071 16.8952 38.9003 16.6061 38.9525C16.3166 39.0051 16.0782 39.2089 15.9809 39.486C15.7867 40.0232 15.63 40.5735 15.5127 41.1325C15.4202 41.5732 15.7013 42.0054 16.1416 42.0995Z" fill="#404040"/>
<path d="M18.2323 37.771C18.4947 37.7714 18.7407 37.6462 18.8946 37.4341C19.1853 37.0333 19.5028 36.6533 19.8453 36.2964C20.1575 35.971 20.1472 35.4538 19.8218 35.1416C19.4964 34.8293 18.9792 34.8397 18.6669 35.1651C18.2722 35.5746 17.9065 36.0113 17.5727 36.4718C17.3925 36.7203 17.3666 37.0485 17.5057 37.3216C17.6449 37.5952 17.9256 37.7674 18.2323 37.7678V37.771Z" fill="#404040"/>
<path d="M21.7569 34.5806C21.9005 34.5802 22.0417 34.5419 22.1653 34.4693C22.5908 34.2201 23.0338 34.0016 23.4908 33.8162C23.9091 33.6463 24.1101 33.1694 23.9402 32.7511C23.7699 32.3332 23.2934 32.1322 22.8751 32.3021C22.3475 32.5174 21.8351 32.7694 21.3422 33.0557C21.0232 33.2411 20.8677 33.6172 20.9634 33.9737C21.0587 34.3302 21.3817 34.5782 21.7506 34.579L21.7569 34.5806Z" fill="#404040"/>
<path d="M39.2706 40.2918C39.2658 40.2703 39.2706 40.25 39.2646 40.2288C39.2503 40.1766 39.2295 40.1252 39.2144 40.0729C39.1988 40.0207 39.1749 39.9561 39.1562 39.8971C39.0573 39.5916 38.9464 39.2897 38.824 38.9907C38.8017 38.9368 38.7805 38.8822 38.7578 38.8272C38.7283 38.7594 38.7048 38.69 38.6761 38.623C38.6617 38.6007 38.6461 38.5791 38.6294 38.5588C38.1732 37.5587 37.5846 36.6248 36.8792 35.7818C36.8697 35.7691 36.8673 35.7527 36.8565 35.7396C36.4884 35.3057 36.0909 34.8978 35.6666 34.5185C35.6403 34.5014 35.6132 34.4854 35.5848 34.4711C34.7746 33.7569 33.8734 33.1528 32.9048 32.6747C32.8828 32.6551 32.8597 32.6376 32.8354 32.6216C32.6783 32.5455 32.5168 32.4793 32.3557 32.4099C32.3094 32.3896 32.2635 32.3676 32.2161 32.3481C31.8967 32.2149 31.5753 32.0909 31.2475 31.986C31.2387 31.986 31.2304 31.986 31.2216 31.986C30.1657 31.6534 29.0695 31.4656 27.9629 31.4285C27.9378 31.4285 27.9162 31.4122 27.8911 31.4114C27.8094 31.4114 27.722 31.4114 27.6387 31.4114C27.592 31.4114 27.5474 31.4038 27.5007 31.4038C27.4876 31.4038 27.4772 31.4106 27.464 31.4114C27.037 31.4102 26.6099 31.4309 26.1852 31.474C25.7553 31.521 25.4367 31.8951 25.4587 32.3269C25.4802 32.7584 25.8343 33.0986 26.267 33.1025C26.2961 33.1025 26.3252 33.1009 26.3543 33.0978C26.7714 33.0555 27.1909 33.0371 27.61 33.0427C28.9789 33.0539 30.3319 33.3314 31.5948 33.8594L31.6837 33.8989C32.8226 34.3921 33.8666 35.0804 34.7682 35.933C34.9887 36.1407 35.1976 36.3576 35.3986 36.5865C36.1718 37.4431 36.8003 38.4196 37.2593 39.4784C37.2772 39.519 37.2927 39.5601 37.3099 39.6016C37.4188 39.8624 37.5161 40.1283 37.6022 40.3995C37.6185 40.4501 37.6365 40.5008 37.652 40.5514C37.9599 41.5559 38.1166 42.6007 38.1166 43.6514C38.1166 43.978 38.0963 44.2998 38.0675 44.6184C38.0604 44.7002 38.0512 44.7815 38.0424 44.8633C37.7302 47.5808 36.3796 50.0727 34.2733 51.8181L34.2302 51.8548C33.1823 52.7169 31.9788 53.3697 30.6848 53.778C30.6482 53.7896 30.6099 53.7991 30.5732 53.8099C30.3044 53.8916 30.0309 53.961 29.7565 54.0216L29.554 54.0647C23.8855 55.1884 18.3627 51.5621 17.1405 45.9144L18.9684 46.8363C19.3719 47.0381 19.8624 46.8742 20.0642 46.4707C20.266 46.0667 20.1021 45.5762 19.6981 45.3745L16.4315 43.7411C16.3206 43.6869 16.1986 43.659 16.0746 43.6594C16.063 43.6558 16.051 43.653 16.0387 43.6514C16.0152 43.6566 15.9916 43.6634 15.9685 43.671C15.884 43.6797 15.801 43.7021 15.7237 43.7371C15.5566 43.8105 15.4194 43.9381 15.3349 44.0996L13.7015 47.3663C13.4998 47.7702 13.6637 48.2607 14.0672 48.4625C14.4711 48.6639 14.9616 48.5004 15.1634 48.0964L15.7213 46.9811C15.9529 47.8017 16.2716 48.5957 16.6719 49.3493C16.6775 49.3721 16.6843 49.3944 16.6923 49.4163C16.9606 49.9196 17.2641 50.4029 17.6002 50.8634C17.6206 50.8914 17.6525 50.9025 17.6756 50.9272C18.3104 51.7758 19.0513 52.5398 19.8804 53.1998C19.9083 53.2393 19.9398 53.276 19.9745 53.3095C20.4227 53.662 20.8952 53.9822 21.3889 54.2681C21.4495 54.3036 21.5145 54.3311 21.5823 54.3498C22.4943 54.8578 23.4676 55.2474 24.4781 55.5086C24.502 55.5218 24.5268 55.5333 24.5519 55.5437C25.1058 55.6805 25.6684 55.7786 26.2358 55.8368H26.3172C26.7084 55.8763 27.104 55.8982 27.5039 55.8982C28.1694 55.8938 28.8334 55.8348 29.4894 55.7224H29.4993C29.5472 55.7228 29.595 55.7184 29.6421 55.7096C29.7131 55.6972 29.7824 55.6785 29.8534 55.6645C29.9443 55.6474 30.0333 55.6271 30.123 55.6075C30.4324 55.5405 30.7375 55.4616 31.0385 55.3715C31.086 55.3575 31.1343 55.3459 31.1805 55.3312C31.2272 55.3168 31.2623 55.3092 31.2997 55.2969C31.3185 55.2905 31.3308 55.2765 31.348 55.2694C32.4019 54.9224 33.4036 54.4332 34.3256 53.8155C34.3371 53.8083 34.3495 53.8067 34.3606 53.7991C34.6737 53.5878 34.9739 53.3549 35.2682 53.1141C35.287 53.0985 35.3049 53.0822 35.3245 53.0666C35.4517 52.9605 35.5817 52.8577 35.7041 52.7476C35.726 52.7217 35.7459 52.6946 35.7639 52.6658C36.5495 51.9477 37.2385 51.1306 37.8143 50.2354C37.8442 50.2039 37.8714 50.1704 37.8961 50.1349C38.1979 49.6516 38.4659 49.148 38.698 48.6272C38.7064 48.6092 38.704 48.5905 38.7104 48.5725C39.1502 47.5709 39.4524 46.5137 39.6088 45.4311C39.6191 45.4044 39.6283 45.3769 39.6355 45.3493C39.6494 45.2505 39.6558 45.15 39.6674 45.0503C39.6789 44.9506 39.6885 44.8545 39.6977 44.7564C39.7312 44.3871 39.7539 44.0163 39.7539 43.6458V43.5984C39.7539 43.5936 39.7539 43.5884 39.7539 43.5828C39.7435 42.4687 39.5812 41.3613 39.2706 40.2918Z" fill="#404040"/>
<path d="M27.4999 36.3013C27.0489 36.3013 26.6833 36.6669 26.6833 37.1179V43.6513C26.6833 43.8678 26.7694 44.0756 26.9225 44.2287L30.1892 47.4953C30.5098 47.8048 31.019 47.8004 31.334 47.4854C31.6491 47.1704 31.6534 46.6611 31.344 46.3405L28.3166 43.3131V37.1179C28.3166 36.6669 27.9509 36.3013 27.4999 36.3013Z" fill="#404040"/>
</g>
<path d="M34.225 2.25685C35.772 1.36369 37.678 1.36369 39.225 2.25685L65.8349 17.6201C67.3819 18.5133 68.3349 20.1639 68.3349 21.9502V52.6767C68.3349 54.4631 67.3819 56.1137 65.8349 57.0069L39.225 72.3701C37.678 73.2633 35.772 73.2633 34.225 72.3701L7.61508 57.0069C6.06807 56.1137 5.11508 54.4631 5.11508 52.6767V21.9502C5.11508 20.1639 6.06807 18.5133 7.61508 17.6201L34.225 2.25685Z" fill="#437FC8" fill-opacity="0.29"/>
<defs>
<clipPath id="clip0_3219_3">
<rect width="49" height="49" fill="white" transform="translate(2.99994 19.1514)"/>
</clipPath>
</defs>
</svg>
