<svg width="15" height="15" viewBox="0 0 15 15" fill="none" xmlns="http://www.w3.org/2000/svg">
<g clip-path="url(#clip0_88_109)">
<path d="M14.7792 5.60587C14.687 5.32239 14.4356 5.12169 14.1393 5.09488L10.0979 4.72797L8.5007 0.988655C8.38278 0.713931 8.11446 0.536621 7.81581 0.536621C7.51716 0.536621 7.24874 0.713931 7.13157 0.988655L5.53439 4.72797L1.49236 5.09488C1.19606 5.12222 0.945155 5.32293 0.852441 5.60587C0.760261 5.88936 0.845392 6.20029 1.06949 6.39683L4.12445 9.0756L3.2237 13.0429C3.15779 13.3346 3.27102 13.6362 3.51305 13.8112C3.64315 13.9057 3.796 13.9529 3.94939 13.9529C4.08119 13.9529 4.21311 13.9179 4.33092 13.8474L7.81581 11.7637L11.3001 13.8474C11.5557 14.0001 11.8771 13.9861 12.1186 13.8112C12.3606 13.6362 12.4738 13.3346 12.4079 13.0429L11.5072 9.0756L14.5621 6.39683C14.7861 6.20029 14.8714 5.89 14.7792 5.60587Z" fill="#FFA800"/>
</g>
<defs>
<clipPath id="clip0_88_109">
<rect width="14" height="14" fill="white" transform="translate(0.815857 0.23584)"/>
</clipPath>
</defs>
</svg>
