<svg width="74" height="74" viewBox="0 0 74 74" fill="none" xmlns="http://www.w3.org/2000/svg">
<g clip-path="url(#clip0_3219_5)">
<path d="M27.3254 63.5322L26.1397 64.7179C25.613 65.2445 25.9934 66.1405 26.7289 66.1405C26.9422 66.1405 27.1555 66.0592 27.3182 65.8965L29.9224 63.2923C30.2479 62.9669 30.2479 62.4393 29.9224 62.1139L27.3182 59.5097C26.9928 59.1843 26.4652 59.1843 26.1398 59.5097C25.8142 59.8351 25.8142 60.3627 26.1398 60.6881L27.317 61.8653C16.0475 61.6777 6.93726 52.4538 6.93726 41.1405C6.93726 36.4656 8.45601 32.053 11.3292 28.3799C11.6128 28.0174 11.5488 27.4936 11.1862 27.2101C10.8238 26.9267 10.3001 26.9905 10.0164 27.3531C6.91174 31.3222 5.2706 36.0898 5.2706 41.1405C5.2706 53.4054 15.1034 63.3508 27.3254 63.5322V63.5322ZM12.7418 26.4111C11.9956 26.4111 11.622 25.4947 12.1663 24.975C12.5439 24.6135 13.0627 24.6693 13.3624 24.9808C13.8905 25.5299 13.4572 26.4111 12.7418 26.4111V26.4111ZM32.2498 46.0364H34.7498C35.21 46.0364 35.5831 46.4095 35.5831 46.8697C35.5831 47.3299 35.21 47.703 34.7498 47.703H32.2498C31.7896 47.703 31.4164 47.3299 31.4164 46.8697C31.4164 46.4095 31.7896 46.0364 32.2498 46.0364ZM18.3956 52.078C18.3956 51.6178 18.7687 51.2447 19.2289 51.2447H36.1039C37.0229 51.2447 37.7706 50.497 37.7706 49.578V32.703C37.7706 31.7841 37.0229 31.0364 36.1039 31.0364H31.8331V36.8697C31.8331 37.4976 31.1631 37.9 30.6088 37.6056L27.6664 36.0424L24.724 37.6055C24.1695 37.9002 23.4998 37.4971 23.4998 36.8697V33.953C23.4998 33.4928 23.8729 33.1197 24.3331 33.1197C24.7933 33.1197 25.1664 33.4928 25.1664 33.953V35.4833L27.2755 34.3629C27.5201 34.233 27.8129 34.233 28.0575 34.3629L30.1664 35.4833V31.0364H19.2289C18.31 31.0364 17.5623 31.7841 17.5623 32.703V47.4947C17.5623 47.9549 17.1891 48.328 16.7289 48.328C16.2687 48.328 15.8956 47.9549 15.8956 47.4947V32.703C15.8956 30.865 17.3909 29.3697 19.2289 29.3697H36.1039C37.942 29.3697 39.4373 30.865 39.4373 32.703V49.578C39.4373 51.416 37.942 52.9114 36.1039 52.9114H19.2289C18.7687 52.9114 18.3956 52.5382 18.3956 52.078ZM48.3956 41.1405C48.3956 29.8273 39.2854 20.6032 28.016 20.4158L29.1932 21.593C29.7199 22.1195 29.3396 23.0155 28.6039 23.0155C28.3907 23.0155 28.1774 22.9342 28.0147 22.7715L25.4105 20.1673C25.085 19.8419 25.085 19.3143 25.4105 18.9889L28.0147 16.3847C28.3401 16.0593 28.8677 16.0593 29.1931 16.3847C29.5186 16.7101 29.5186 17.2377 29.1931 17.5631L28.0074 18.7489C40.2213 18.93 50.0623 28.8676 50.0623 41.1405C50.0623 46.1911 48.4212 50.9589 45.3164 54.928C45.0327 55.2908 44.5088 55.3544 44.1466 55.071C43.7841 54.7875 43.7201 54.2638 44.0036 53.9013C46.877 50.228 48.3956 45.8154 48.3956 41.1405V41.1405ZM43.1939 56.1278C43.4931 56.4413 43.5253 56.9627 43.1487 57.323C42.8172 57.642 42.2897 57.632 41.9704 57.3001C41.6513 56.9683 41.6616 56.4408 41.9933 56.1218C42.3767 55.755 42.8964 55.816 43.1939 56.1278V56.1278Z" fill="#404040"/>
</g>
<path d="M34.225 2.08888C35.772 1.19572 37.678 1.19572 39.225 2.08888L65.835 17.4521C67.382 18.3453 68.335 19.9959 68.335 21.7823V52.5088C68.335 54.2951 67.382 55.9457 65.835 56.8389L39.225 72.2021C37.678 73.0953 35.772 73.0953 34.225 72.2021L7.61511 56.8389C6.0681 55.9457 5.11511 54.2951 5.11511 52.5088V21.7823C5.11511 19.9959 6.0681 18.3453 7.61511 17.4521L34.225 2.08888Z" fill="#437FC8" fill-opacity="0.29"/>
<defs>
<clipPath id="clip0_3219_5">
<rect width="50" height="50" fill="white" transform="matrix(-1 0 0 1 52.6664 16.1406)"/>
</clipPath>
</defs>
</svg>
