<svg width="76" height="74" viewBox="0 0 76 74" fill="none" xmlns="http://www.w3.org/2000/svg">
<g clip-path="url(#clip0_3219_8)">
<path d="M43.6488 39.5201L42.5876 37.1847C42.5277 37.0531 42.5277 36.9021 42.5876 36.7704L43.6488 34.4347C43.9979 33.6661 43.8182 32.7624 43.2014 32.1856L41.3272 30.4342C41.2216 30.3354 41.164 30.1958 41.1689 30.0513L41.2551 27.4874C41.2837 26.6436 40.7718 25.8772 39.9814 25.5808L37.5797 24.6794C37.4443 24.6287 37.3374 24.5219 37.2867 24.3864L36.3857 21.9847C36.0889 21.1943 35.3199 20.6816 34.4787 20.711L31.9152 20.7976C31.7688 20.8018 31.631 20.7446 31.5322 20.6389L29.7805 18.7647C29.2041 18.1479 28.3001 17.9682 27.5314 18.3176L25.196 19.3785C25.0644 19.4384 24.9134 19.438 24.7818 19.3785L22.446 18.3176C21.6774 17.9682 20.7737 18.1479 20.1969 18.7647L18.4456 20.6389C18.3468 20.7446 18.2079 20.8025 18.0626 20.7976L15.4987 20.711C14.6545 20.6831 13.8889 21.1947 13.5921 21.9851L12.6907 24.3868C12.64 24.5222 12.5332 24.6291 12.3978 24.6798L9.99603 25.5808C9.20563 25.8776 8.6937 26.6436 8.72231 27.4874L8.8089 30.0513C8.81348 30.1958 8.75588 30.3354 8.65021 30.4342L6.77644 32.1856C6.1596 32.7624 5.97955 33.6661 6.32897 34.4347L7.38984 36.7701C7.44973 36.9017 7.44973 37.0527 7.38984 37.1847L6.32897 39.5201C5.97955 40.2887 6.15922 41.1924 6.77605 41.7692L8.65021 43.5209C8.75588 43.6197 8.81348 43.759 8.8089 43.9035L8.72231 46.4674C8.6937 47.3112 9.20563 48.0776 9.99603 48.374L12.3978 49.275C12.5332 49.3261 12.64 49.4329 12.6907 49.568L13.5921 51.9697C13.6215 52.0483 13.6555 52.1242 13.694 52.1967L7.66907 61.4832C7.37687 61.9333 7.37458 62.4937 7.66297 62.9461C7.95098 63.3985 8.45948 63.6335 8.99086 63.5591L13.8954 62.8736C13.961 62.8644 14.0263 62.895 14.061 62.9514L16.8674 67.4985C17.1123 67.8953 17.5369 68.1356 18.0031 68.1405C18.0084 68.1405 18.0134 68.1409 18.0187 68.1409C18.4788 68.1409 18.9022 67.9113 19.1528 67.5245L27.0168 55.4033L27.5314 55.6371C28.3001 55.9862 29.2038 55.8065 29.7805 55.1897L31.5322 53.3159C31.631 53.2102 31.7714 53.1522 31.9149 53.1572L34.4787 53.2438C35.3229 53.2724 36.0885 52.7605 36.3853 51.9697L37.2863 49.568C37.3371 49.4325 37.4443 49.3257 37.5793 49.275L39.981 48.374C40.7718 48.0772 41.2837 47.3108 41.2551 46.4674L41.1685 43.9035C41.1636 43.759 41.2216 43.6193 41.3272 43.5205L43.201 41.7688C43.8182 41.1924 43.9979 40.2887 43.6488 39.5201ZM18.0206 66.5784L15.3076 62.1824C14.9677 61.6315 14.3345 61.3336 13.6928 61.4229L9.03168 62.0744L14.8231 53.1481C15.0368 53.2179 15.2649 53.2514 15.4987 53.2438L18.0626 53.1572C18.2079 53.1522 18.3468 53.2102 18.4456 53.3159L20.1973 55.1897C20.5776 55.5967 21.1006 55.8134 21.6331 55.8134C21.9074 55.8134 22.1847 55.7558 22.446 55.6371L24.7818 54.5763C24.9134 54.5164 25.0644 54.5164 25.196 54.5763L25.6683 54.7907L18.0206 66.5784ZM42.2012 40.6988L40.327 42.4505C39.9124 42.8381 39.6858 43.3859 39.7048 43.9531L39.7914 46.5166C39.7987 46.7317 39.6682 46.9271 39.4668 47.0026L37.0651 47.9036C36.5337 48.1031 36.1145 48.522 35.9153 49.0534L35.0139 51.4551C34.9384 51.6565 34.7415 51.787 34.5283 51.7797L31.9645 51.6931C31.3976 51.6744 30.8494 51.901 30.4622 52.3157L28.7105 54.1895C28.5637 54.3466 28.3332 54.3928 28.1372 54.3035L25.8018 53.2427C25.2853 53.0077 24.6925 53.0077 24.1756 53.2427L21.8403 54.3035C21.6442 54.3924 21.4142 54.3466 21.2673 54.1895L19.5156 52.3157C19.1433 51.9171 18.623 51.6924 18.0797 51.6924C18.0576 51.6924 18.0355 51.6927 18.013 51.6935L15.4495 51.7801C15.2344 51.7874 15.0391 51.6569 14.9635 51.4555L14.0625 49.0537C13.863 48.5224 13.4438 48.1031 12.9127 47.904L10.511 47.0026C10.3096 46.9271 10.1791 46.7317 10.1864 46.517L10.2726 43.9531C10.2921 43.3859 10.0651 42.8381 9.65042 42.4509L7.77665 40.6988C7.61948 40.5519 7.57332 40.3219 7.66259 40.1258L8.72345 37.7905C8.95844 37.274 8.95844 36.6812 8.72345 36.1643L7.66259 33.8289C7.57371 33.6332 7.61948 33.4028 7.77665 33.256L9.65042 31.5043C10.0651 31.1167 10.2921 30.5689 10.273 30.0017L10.1864 27.4378C10.1791 27.223 10.3096 27.0277 10.511 26.9522L12.9127 26.0512C13.4441 25.8517 13.863 25.4328 14.0625 24.9014L14.9635 22.4997C15.0391 22.2983 15.2336 22.1682 15.4495 22.1751L18.0134 22.2613C18.5814 22.2815 19.128 22.0538 19.5156 21.6391L21.2673 19.7653C21.4142 19.6078 21.6446 19.5624 21.8403 19.6513L24.1756 20.7121C24.6925 20.9467 25.2849 20.9467 25.8018 20.7121L28.1372 19.6513C28.3332 19.5624 28.5637 19.6082 28.7105 19.7653L30.4622 21.6391C30.8494 22.0538 31.3987 22.2819 31.9645 22.2617L34.5283 22.1751C34.7404 22.1682 34.9384 22.2983 35.0139 22.4997L35.9153 24.9014C36.1145 25.4328 36.5337 25.8517 37.0651 26.0512L39.4668 26.9522C39.6682 27.0281 39.7987 27.223 39.7914 27.4382L39.7048 30.002C39.6858 30.5693 39.9124 31.1167 40.327 31.5043L42.2012 33.256C42.3583 33.4028 42.4041 33.6332 42.3152 33.8289L41.254 36.1643C41.0194 36.6812 41.0194 37.274 41.254 37.7905L42.3148 40.1258C42.4041 40.3219 42.3583 40.5519 42.2012 40.6988Z" fill="#404040"/>
<path d="M37.6396 37.7248C37.2379 37.679 36.8744 37.9663 36.8274 38.368C36.1305 44.3704 31.0413 48.8966 24.9889 48.8966C18.9331 48.8966 13.8435 44.3674 13.1496 38.3615C13.1031 37.9598 12.7399 37.6707 12.3379 37.718C11.9362 37.7645 11.6478 38.1277 11.6943 38.5297C12.4737 45.2749 18.1892 50.3614 24.9889 50.3614C31.7848 50.3614 37.5 45.2779 38.2828 38.5366C38.3293 38.1349 38.0413 37.7714 37.6396 37.7248Z" fill="#404040"/>
<path d="M24.9889 23.5938C18.1869 23.5938 12.471 28.6822 11.6936 35.43C11.6474 35.8317 11.9358 36.1948 12.3375 36.2414C12.3661 36.2448 12.3943 36.2463 12.4222 36.2463C12.7892 36.2463 13.1058 35.9709 13.1489 35.5975C13.8412 29.5893 18.9312 25.0586 24.9889 25.0586C31.0451 25.0586 36.1351 29.5882 36.8282 35.5948C36.8748 35.9965 37.2375 36.2849 37.64 36.2383C38.0421 36.1922 38.3301 35.8286 38.2835 35.4269C37.505 28.681 31.7894 23.5938 24.9889 23.5938Z" fill="#404040"/>
<path d="M37.59 54.2104C37.3699 53.8709 36.916 53.7744 36.5768 53.9945C36.2373 54.2146 36.1408 54.6682 36.3609 55.0077L40.9458 62.0744L36.285 61.4233C35.6438 61.3336 35.0098 61.6315 34.6702 62.1824L31.9568 66.5784L27.2076 59.2584C26.9874 58.9189 26.5339 58.8224 26.1947 59.0425C25.8552 59.2626 25.7587 59.7162 25.9788 60.0557L30.8246 67.5245C31.0757 67.9113 31.4987 68.1409 31.9588 68.1409H31.9744C32.4406 68.1356 32.8651 67.8956 33.1104 67.4989L35.9165 62.9514C35.9516 62.895 36.0168 62.8644 36.0821 62.8736L40.9866 63.5591C41.5176 63.6339 42.0265 63.3985 42.3149 62.9461C42.6029 62.4937 42.6006 61.9333 42.3088 61.4835L37.59 54.2104Z" fill="#404040"/>
</g>
<path d="M36.2252 2.08888C37.7722 1.19572 39.6782 1.19572 41.2252 2.08888L67.8351 17.4521C69.3821 18.3453 70.3351 19.9959 70.3351 21.7823V52.5088C70.3351 54.2951 69.3821 55.9457 67.8351 56.8389L41.2252 72.2021C39.6782 73.0953 37.7722 73.0953 36.2252 72.2021L9.61529 56.8389C8.06829 55.9457 7.11529 54.2951 7.11529 52.5088V21.7823C7.11529 19.9959 8.06829 18.3453 9.61529 17.4521L36.2252 2.08888Z" fill="#437FC8" fill-opacity="0.29"/>
<defs>
<clipPath id="clip0_3219_8">
<rect width="50" height="50" fill="white" transform="translate(-6.10352e-05 18.1411)"/>
</clipPath>
</defs>
</svg>
