<svg width="74" height="74" viewBox="0 0 74 74" fill="none" xmlns="http://www.w3.org/2000/svg">
<g clip-path="url(#clip0_3219_6)">
<path d="M45.2497 56.3271C43.9666 56.3271 42.9228 57.3709 42.9228 58.6541C42.9228 59.9371 43.9666 60.9809 45.2497 60.9809C46.5327 60.9809 47.5765 59.9371 47.5765 58.6541C47.5765 57.371 46.5327 56.3271 45.2497 56.3271ZM45.2496 59.6019C44.727 59.6019 44.3018 59.1767 44.3018 58.6541C44.3018 58.1315 44.727 57.7062 45.2496 57.7062C45.7722 57.7062 46.1974 58.1315 46.1974 58.6541C46.1974 59.1767 45.7722 59.6019 45.2496 59.6019Z" fill="#404040"/>
<path d="M51.5189 58.5335C51.475 56.8299 50.7539 55.263 49.4885 54.1215L35.606 41.6002L47.8806 29.3256C47.9613 29.3015 48.041 29.2715 48.1179 29.2309L50.776 27.828C51.1432 27.6341 51.3895 27.2873 51.4514 26.8768C51.5135 26.4662 51.3807 26.0622 51.087 25.7683L48.0942 22.7755C47.8005 22.4819 47.3968 22.3491 46.9858 22.4111C46.5753 22.4731 46.2285 22.7194 46.0346 23.0867L44.6316 25.7446C44.5906 25.8222 44.5591 25.9024 44.535 25.9839L38.7412 31.7776C38.4719 32.047 38.4719 32.4835 38.7412 32.7529C39.0106 33.022 39.4471 33.022 39.7164 32.7529L45.0331 27.4361L46.4265 28.8294L32.8298 42.4261L31.4364 41.0328L37.3713 35.0981C37.6406 34.8287 37.6406 34.3922 37.3713 34.1228C37.1019 33.8537 36.6654 33.8537 36.396 34.1228L32.0899 38.4289L27.4034 34.2019C28.7321 30.3773 27.7699 26.1221 24.8875 23.2398C21.9352 20.2874 17.5062 19.3466 13.6041 20.8431C13.386 20.9268 13.2251 21.115 13.1766 21.3434C13.128 21.5719 13.1983 21.8094 13.3634 21.9745L18.7768 27.3879C18.9369 27.5481 19.0252 27.761 19.0252 27.9875C19.0252 28.214 18.937 28.427 18.7768 28.5872L15.2612 32.1028C15.1011 32.263 14.8881 32.3512 14.6616 32.3512C14.4351 32.3512 14.2222 32.2631 14.062 32.1028L8.64852 26.6893C8.48328 26.5242 8.24598 26.4539 8.01746 26.5025C7.78903 26.5511 7.60077 26.7119 7.5171 26.93C6.02059 30.8319 6.96146 35.2609 9.91388 38.2134C12.7256 41.0251 16.8984 42.015 20.6628 40.7986L24.2863 44.761C24.1122 45.1012 23.8858 45.4185 23.6065 45.6978C22.562 46.7423 20.9966 47.0713 19.6181 46.5362C19.3633 46.4371 19.0742 46.4981 18.8808 46.6914L10.4381 55.134C8.15264 57.4196 8.15264 61.1385 10.4381 63.4239C11.5455 64.5314 13.0176 65.1411 14.5833 65.1411C16.149 65.1411 17.6212 64.5314 18.7283 63.4242L27.171 54.9816C27.3642 54.7884 27.4251 54.4992 27.3262 54.2444C26.791 52.8659 27.12 51.3003 28.1645 50.2559C29.2091 49.2114 30.7746 48.8823 32.1531 49.4174C32.4081 49.5165 32.697 49.4553 32.8903 49.2623L34.4829 47.6697C34.9624 47.1901 35.2265 46.5525 35.2265 45.8744C35.2265 45.1963 34.9624 44.5587 34.4829 44.0792L33.805 43.4013L34.6297 42.5766L48.5649 55.1456C49.5468 56.0312 50.1064 57.2471 50.1405 58.569C50.1745 59.8909 49.6782 61.1339 48.7432 62.0689C47.8126 62.9996 46.5727 63.495 45.2595 63.4666C43.9437 63.4372 42.73 62.8862 41.8418 61.9149L31.4805 50.5845C31.2232 50.3033 30.7873 50.284 30.5063 50.541C30.2253 50.7981 30.2058 51.2342 30.4628 51.5152L40.824 62.8456C41.9687 64.0972 43.533 64.8074 45.2287 64.8453C45.2761 64.8463 45.3235 64.8468 45.3709 64.8468C47.0134 64.8468 48.5524 64.2097 49.7183 63.044C50.9233 61.839 51.5627 60.2371 51.5189 58.5335ZM45.8804 26.333L47.2004 23.8322L50.0304 26.6621L47.5296 27.9822L45.8804 26.333ZM21.3743 39.5332C21.1844 39.3258 20.8879 39.2542 20.6244 39.3525C17.2527 40.6102 13.431 39.7803 10.8889 37.2386C8.58075 34.9303 7.68638 31.5839 8.47449 28.4658L13.0867 33.078C13.5075 33.4986 14.0667 33.7302 14.6616 33.7302C15.2564 33.7302 15.8156 33.4986 16.2363 33.078L19.7518 29.5625C20.1725 29.1417 20.4041 28.5825 20.4041 27.9876C20.4041 27.3928 20.1725 26.8335 19.7518 26.4129L15.1397 21.8005C18.2576 21.012 21.6043 21.9067 23.9124 24.2149C26.5191 26.8215 27.3202 30.7191 25.9534 34.1446C25.8464 34.4126 25.9176 34.7189 26.132 34.9122L31.1135 39.4053L30.4612 40.0576L29.7833 39.3797C29.3038 38.9002 28.6661 38.6362 27.9881 38.6362C27.31 38.6362 26.6723 38.9002 26.1928 39.3797L24.6002 40.9723C24.407 41.1656 24.3461 41.4548 24.4451 41.7095C24.6285 42.182 24.7081 42.6761 24.6944 43.164L21.3743 39.5332ZM33.5076 46.6945L32.2172 47.985C30.4425 47.4734 28.5114 47.9587 27.1894 49.2806H27.1893C25.8674 50.6026 25.382 52.5335 25.8938 54.3085L17.7532 62.4489C16.9065 63.2957 15.7808 63.762 14.5834 63.762C13.3861 63.762 12.2602 63.2957 11.4136 62.4489C9.66576 60.7011 9.66576 57.8572 11.4136 56.1093L19.5542 47.9688C21.329 48.4806 23.2599 47.995 24.5819 46.6731C25.9038 45.3511 26.3893 43.4202 25.8775 41.6453L27.168 40.3549C27.6201 39.9026 28.3561 39.9026 28.8082 40.3549L29.9737 41.5204L32.3421 43.8888L33.5076 45.0543C33.9599 45.5066 33.9599 46.2424 33.5076 46.6945Z" fill="#404040"/>
<path d="M20.935 50.573C20.6656 50.3038 20.2292 50.3038 19.9598 50.573L13.4279 57.1049C13.1586 57.3742 13.1586 57.8107 13.4279 58.0801C13.5626 58.2147 13.7392 58.282 13.9155 58.282C14.0919 58.282 14.2685 58.2147 14.4032 58.0801L20.935 51.5482C21.2042 51.2789 21.2042 50.8423 20.935 50.573Z" fill="#404040"/>
<path d="M23.3484 52.9866C23.0791 52.7174 22.6426 52.7174 22.3732 52.9866L15.8413 59.5183C15.572 59.7877 15.572 60.2242 15.8413 60.4936C15.976 60.6281 16.1525 60.6955 16.3289 60.6955C16.5053 60.6955 16.6819 60.6281 16.8166 60.4936L23.3484 53.9618C23.6177 53.6924 23.6177 53.256 23.3484 52.9866Z" fill="#404040"/>
</g>
<path d="M34.225 2.08888C35.772 1.19572 37.678 1.19572 39.225 2.08888L65.835 17.4521C67.382 18.3453 68.335 19.9959 68.335 21.7823V52.5088C68.335 54.2951 67.382 55.9457 65.835 56.8389L39.225 72.2021C37.678 73.0953 35.772 73.0953 34.225 72.2021L7.61511 56.8389C6.0681 55.9457 5.11511 54.2951 5.11511 52.5088V21.7823C5.11511 19.9959 6.0681 18.3453 7.61511 17.4521L34.225 2.08888Z" fill="#437FC8" fill-opacity="0.29"/>
<defs>
<clipPath id="clip0_3219_6">
<rect width="45" height="45" fill="white" transform="translate(6.66809 20.1411)"/>
</clipPath>
</defs>
</svg>
