<svg width="15" height="15" viewBox="0 0 15 15" fill="none" xmlns="http://www.w3.org/2000/svg">
<g clip-path="url(#clip0_88_296)">
<path d="M14.2397 5.07598C14.0797 4.8964 13.861 4.7796 13.6228 4.74644V4.74594L9.90202 4.23196L8.42963 0.713704C8.21464 0.198729 7.62288 -0.044448 7.10794 0.170547C6.86244 0.27305 6.66725 0.468213 6.56478 0.713704L5.09239 4.23196L1.37164 4.74594C0.817296 4.8231 0.430457 5.33509 0.50762 5.88944C0.540781 6.12766 0.65758 6.34632 0.837158 6.50633L3.64047 9.00615L3.06448 12.9289C3.00208 13.3272 3.18503 13.724 3.52845 13.9353C3.86704 14.1518 4.30257 14.1437 4.63287 13.9148L7.49718 11.9669L10.3615 13.9168C10.8237 14.2305 11.4527 14.1101 11.7664 13.6479C11.9089 13.4379 11.9673 13.1819 11.9299 12.9308L11.3539 9.00662L14.1573 6.5068C14.5751 6.13446 14.612 5.49384 14.2397 5.07598ZM10.487 8.44167C10.3616 8.55372 10.3009 8.72129 10.3255 8.88765L10.9254 13.0874L7.77967 10.9485C7.61008 10.8333 7.38729 10.8333 7.2177 10.9485L4.05342 13.0744L4.66887 8.88566C4.69278 8.71997 4.63214 8.55331 4.50737 8.4417L1.50757 5.73787L5.51131 5.18539C5.68661 5.16123 5.83604 5.04618 5.90427 4.88292L7.50315 1.09219C7.50497 1.09442 7.50632 1.09697 7.50717 1.09969L9.08956 4.88093C9.15779 5.04419 9.30725 5.15923 9.48252 5.1834L13.4913 5.76037L10.487 8.44167Z" fill="#FFA800"/>
</g>
<defs>
<clipPath id="clip0_88_296">
<rect width="14" height="14" fill="white" transform="translate(0.496719 0.0922852)"/>
</clipPath>
</defs>
</svg>
