<svg width="74" height="74" viewBox="0 0 74 74" fill="none" xmlns="http://www.w3.org/2000/svg">
<path d="M43.9305 36.5514C43.9832 36.077 43.9286 35.5969 43.7706 35.1465C43.6127 34.6961 43.3556 34.287 43.0182 33.9494C42.6808 33.6119 42.2718 33.3544 41.8215 33.1963C41.3712 33.0381 40.8911 32.9831 40.4168 33.0356C40.4294 32.9202 40.4358 32.8042 40.4359 32.6881C40.4359 31.8424 40.0999 31.0312 39.5019 30.4332C38.9038 29.8351 38.0927 29.4991 37.2469 29.4991C37.1308 29.4993 37.0149 29.5057 36.8995 29.5183C36.9716 28.862 36.8382 28.1994 36.5175 27.6222C36.1968 27.045 35.7049 26.5817 35.1095 26.2961C34.5141 26.0106 33.8448 25.9171 33.194 26.0284C32.5431 26.1397 31.9429 26.4504 31.4763 26.9175L29.0713 29.3225C28.7131 28.8455 28.3218 28.3943 27.9003 27.9722L25.0878 25.1597C24.0236 24.0955 22.5801 23.4976 21.075 23.4976C19.5699 23.4976 18.1265 24.0955 17.0622 25.1597C16.9969 25.225 16.9451 25.3025 16.9098 25.3878C16.8745 25.4731 16.8563 25.5646 16.8563 25.6569C16.8563 25.7492 16.8745 25.8407 16.9098 25.926C16.9451 26.0113 16.9969 26.0888 17.0622 26.1541L18.0813 27.1732C19.3909 28.486 20.331 30.121 20.807 31.9133C21.2829 33.7055 21.2778 35.5915 20.7922 37.3811C20.5133 38.4039 20.3719 39.4593 20.3719 40.5194V45.0531L18.9656 46.4594L18.7597 46.2535C18.6278 46.1216 18.449 46.0475 18.2625 46.0475C18.076 46.0475 17.8972 46.1216 17.7653 46.2535L15.45 48.5688L15.2441 48.3628C15.1122 48.231 14.9334 48.1569 14.7469 48.1569C14.5604 48.1569 14.3816 48.231 14.2497 48.3628L5.81223 56.8003L6.80657 57.7947L14.7469 49.8544L26.4088 61.5163L23.3903 64.5347L24.3847 65.5291L27.9003 62.0134C27.9656 61.9482 28.0174 61.8706 28.0528 61.7853C28.0881 61.7 28.1063 61.6086 28.1063 61.5163C28.1063 61.4239 28.0881 61.3325 28.0528 61.2472C28.0174 61.1619 27.9656 61.0844 27.9003 61.0191L26.9912 60.11L29.3066 57.7947C29.3719 57.7294 29.4237 57.6519 29.459 57.5666C29.4943 57.4813 29.5125 57.3898 29.5125 57.2975C29.5125 57.2052 29.4943 57.1137 29.459 57.0284C29.4237 56.9431 29.3719 56.8656 29.3066 56.8003L27.6944 55.1881L29.1007 53.7819H34.4344C34.5267 53.7819 34.6182 53.7637 34.7035 53.7284C34.7888 53.693 34.8663 53.6412 34.9316 53.5759L41.9628 46.5447L41.9352 46.5171C42.0699 46.4192 42.1966 46.3108 42.3144 46.1931L46.5331 41.9744C47.0004 41.5076 47.3111 40.9073 47.4224 40.2562C47.5336 39.6052 47.4399 38.9358 47.1541 38.3403C46.8684 37.7449 46.4047 37.253 45.8272 36.9325C45.2497 36.612 44.587 36.4788 43.9305 36.5514ZM40.7625 34.4218C41.1151 34.4216 41.4599 34.5259 41.7532 34.7217C42.0464 34.9175 42.275 35.1959 42.41 35.5217C42.5449 35.8474 42.5802 36.2059 42.5114 36.5517C42.4425 36.8976 42.2726 37.2152 42.0232 37.4644L37.8044 41.6832C37.4701 42.0175 37.0166 42.2053 36.5438 42.2053C36.0709 42.2053 35.6175 42.0175 35.2831 41.6832C34.9488 41.3488 34.761 40.8953 34.761 40.4225C34.761 39.9497 34.9488 39.4962 35.2831 39.1619L39.5019 34.9431C39.6673 34.7775 39.8639 34.6462 40.0802 34.5567C40.2965 34.4672 40.5284 34.4214 40.7625 34.4218ZM38.5075 31.4275C38.8414 31.7621 39.0289 32.2155 39.0289 32.6881C39.0289 33.1608 38.8414 33.6142 38.5075 33.9488L34.2888 38.1675C33.9544 38.5019 33.501 38.6897 33.0281 38.6897C32.5553 38.6897 32.1019 38.5019 31.7675 38.1675C31.4332 37.8332 31.2453 37.3797 31.2453 36.9069C31.2453 36.4341 31.4332 35.9806 31.7675 35.6462L35.9863 31.4275C36.3209 31.0937 36.7742 30.9062 37.2469 30.9062C37.7196 30.9062 38.1729 31.0937 38.5075 31.4275ZM32.4706 27.9119C32.805 27.5775 33.2584 27.3897 33.7313 27.3897C34.2041 27.3897 34.6576 27.5775 34.9919 27.9119C35.3263 28.2462 35.5141 28.6997 35.5141 29.1725C35.5141 29.6453 35.3263 30.0988 34.9919 30.4332L30.7732 34.6519C30.6076 34.8174 30.4111 34.9488 30.1948 35.0384C29.9785 35.128 29.7466 35.1741 29.5125 35.1741C29.2784 35.1741 29.0466 35.128 28.8303 35.0384C28.614 34.9488 28.4174 34.8174 28.2519 34.6519C28.0863 34.4864 27.955 34.2898 27.8654 34.0735C27.7758 33.8572 27.7297 33.6254 27.7297 33.3913C27.7297 33.1571 27.7758 32.9253 27.8654 32.709C27.955 32.4927 28.0863 32.2962 28.2519 32.1306L32.4706 27.9119ZM25.9969 59.1157L16.4444 49.5631L18.2625 47.745L27.8151 57.2975L25.9969 59.1157ZM34.1431 52.3756H28.8094C28.7171 52.3756 28.6256 52.3938 28.5403 52.4292C28.455 52.4645 28.3775 52.5163 28.3122 52.5816L26.7 54.1938L19.96 47.4538L21.5722 45.8416C21.6375 45.7763 21.6893 45.6988 21.7246 45.6135C21.76 45.5282 21.7782 45.4367 21.7781 45.3444V40.5194C21.7782 39.5843 21.9028 38.6533 22.1489 37.7511C22.6994 35.7223 22.7052 33.5842 22.1657 31.5524C21.6261 29.5207 20.5603 27.6672 19.0757 26.1788L18.5947 25.6978C19.4175 25.1122 20.4211 24.8368 21.4275 24.9203C22.434 25.0038 23.3784 25.4409 24.0935 26.1541L26.906 28.9666C27.328 29.3889 27.716 29.844 28.0663 30.3275L27.2575 31.1363C26.7899 31.6027 26.4787 32.203 26.3671 32.854C26.2555 33.505 26.349 34.1746 26.6346 34.7702C26.9202 35.3658 27.3839 35.8579 27.9614 36.1784C28.5389 36.499 29.2018 36.6321 29.8583 36.5595C29.8457 36.6748 29.8393 36.7908 29.8391 36.9069C29.8379 37.4324 29.9673 37.95 30.2156 38.4131V38.9663C30.2197 40.4508 29.9293 41.9214 29.3612 43.293C28.7931 44.6645 27.9586 45.9097 26.906 46.9566L27.9003 47.9509C30.097 45.7665 31.4128 42.8499 31.5969 39.7574C32.0409 39.9808 32.5311 40.0967 33.0281 40.0959C33.1442 40.0958 33.2602 40.0893 33.3756 40.0767C33.323 40.5512 33.3778 41.0313 33.5359 41.4817C33.6941 41.9321 33.9515 42.3411 34.2891 42.6785C34.6267 43.0159 35.0359 43.2731 35.4864 43.431C35.9368 43.5888 36.417 43.6433 36.8914 43.5905C36.803 44.3857 37.0174 45.185 37.4917 45.8293C37.9661 46.4737 38.6656 46.9158 39.4512 47.0676L34.1431 52.3756ZM45.5388 40.98L41.32 45.1988C40.9857 45.5331 40.5322 45.7209 40.0594 45.7209C39.5866 45.7209 39.1331 45.5331 38.7988 45.1988C38.4644 44.8644 38.2766 44.411 38.2766 43.9381C38.2766 43.4653 38.4644 43.0118 38.7988 42.6775L43.0175 38.4587C43.3518 38.1244 43.8053 37.9366 44.2781 37.9366C44.751 37.9366 45.2044 38.1244 45.5388 38.4587C45.8731 38.7931 46.061 39.2466 46.061 39.7194C46.061 40.1922 45.8731 40.6457 45.5388 40.98Z" fill="#404040"/>
<path d="M45.6844 57.2974C44.7523 57.2963 43.8587 56.9256 43.1996 56.2665C42.5405 55.6074 42.1698 54.7138 42.1688 53.7817C42.1688 53.5953 42.0947 53.4164 41.9628 53.2846C41.831 53.1527 41.6521 53.0786 41.4656 53.0786C41.2792 53.0786 41.1003 53.1527 40.9685 53.2846C40.8366 53.4164 40.7625 53.5953 40.7625 53.7817C40.7615 54.7138 40.3907 55.6074 39.7316 56.2665C39.0726 56.9256 38.179 57.2963 37.2469 57.2974C37.0604 57.2974 36.8816 57.3714 36.7497 57.5033C36.6178 57.6352 36.5438 57.814 36.5438 58.0005C36.5438 58.187 36.6178 58.3658 36.7497 58.4977C36.8816 58.6295 37.0604 58.7036 37.2469 58.7036C38.179 58.7047 39.0726 59.0754 39.7316 59.7345C40.3907 60.3936 40.7615 61.2872 40.7625 62.2192C40.7625 62.4057 40.8366 62.5846 40.9685 62.7164C41.1003 62.8483 41.2792 62.9224 41.4656 62.9224C41.6521 62.9224 41.831 62.8483 41.9628 62.7164C42.0947 62.5846 42.1688 62.4057 42.1688 62.2192C42.1698 61.2872 42.5405 60.3936 43.1996 59.7345C43.8587 59.0754 44.7523 58.7047 45.6844 58.7036C45.8709 58.7036 46.0497 58.6295 46.1816 58.4977C46.3134 58.3658 46.3875 58.187 46.3875 58.0005C46.3875 57.814 46.3134 57.6352 46.1816 57.5033C46.0497 57.3714 45.8709 57.2974 45.6844 57.2974ZM41.4656 59.6862C41.0491 58.9957 40.4705 58.417 39.7799 58.0005C40.4705 57.5839 41.0491 57.0053 41.4656 56.3147C41.8822 57.0053 42.4608 57.5839 43.1514 58.0005C42.4608 58.417 41.8822 58.9957 41.4656 59.6862Z" fill="#404040"/>
<path d="M47.0906 27.063C46.345 27.0622 45.6301 26.7656 45.1028 26.2383C44.5756 25.711 44.279 24.9962 44.2781 24.2505C44.2781 24.064 44.2041 23.8852 44.0722 23.7533C43.9403 23.6214 43.7615 23.5474 43.575 23.5474C43.3885 23.5474 43.2097 23.6214 43.0778 23.7533C42.946 23.8852 42.8719 24.064 42.8719 24.2505C42.871 24.9962 42.5745 25.711 42.0472 26.2383C41.5199 26.7656 40.8051 27.0622 40.0594 27.063C39.8729 27.063 39.6941 27.1371 39.5622 27.2689C39.4303 27.4008 39.3563 27.5796 39.3563 27.7661C39.3563 27.9526 39.4303 28.1314 39.5622 28.2633C39.6941 28.3952 39.8729 28.4692 40.0594 28.4692C40.8051 28.4701 41.5199 28.7667 42.0472 29.2939C42.5745 29.8212 42.871 30.5361 42.8719 31.2817C42.8719 31.4682 42.946 31.6471 43.0778 31.7789C43.2097 31.9108 43.3885 31.9849 43.575 31.9849C43.7615 31.9849 43.9403 31.9108 44.0722 31.7789C44.2041 31.6471 44.2781 31.4682 44.2781 31.2817C44.279 30.5361 44.5756 29.8212 45.1028 29.2939C45.6301 28.7667 46.345 28.4701 47.0906 28.4692C47.2771 28.4692 47.456 28.3952 47.5878 28.2633C47.7197 28.1314 47.7938 27.9526 47.7938 27.7661C47.7938 27.5796 47.7197 27.4008 47.5878 27.2689C47.456 27.1371 47.2771 27.063 47.0906 27.063ZM43.575 28.952C43.2623 28.4819 42.8592 28.0788 42.3891 27.7661C42.8592 27.4534 43.2623 27.0503 43.575 26.5802C43.8877 27.0503 44.2908 27.4534 44.7609 27.7661C44.2908 28.0788 43.8877 28.4819 43.575 28.952Z" fill="#404040"/>
<path d="M9.82501 41.1255C9.82501 41.312 9.89909 41.4908 10.031 41.6227C10.1628 41.7545 10.3417 41.8286 10.5281 41.8286C10.7146 41.8286 10.8935 41.7545 11.0253 41.6227C11.1572 41.4908 11.2313 41.312 11.2313 41.1255C11.2323 40.1934 11.603 39.2998 12.2621 38.6407C12.9212 37.9816 13.8148 37.6109 14.7469 37.6099C14.9334 37.6099 15.1122 37.5358 15.2441 37.4039C15.3759 37.2721 15.45 37.0932 15.45 36.9067C15.45 36.7203 15.3759 36.5414 15.2441 36.4096C15.1122 36.2777 14.9334 36.2036 14.7469 36.2036C13.8148 36.2026 12.9212 35.8318 12.2621 35.1727C11.603 34.5137 11.2323 33.6201 11.2313 32.688C11.2313 32.5015 11.1572 32.3227 11.0253 32.1908C10.8935 32.0589 10.7146 31.9849 10.5281 31.9849C10.3417 31.9849 10.1628 32.0589 10.031 32.1908C9.89909 32.3227 9.82501 32.5015 9.82501 32.688C9.82396 33.6201 9.45323 34.5137 8.79415 35.1727C8.13507 35.8318 7.24147 36.2026 6.30939 36.2036C6.12291 36.2036 5.94406 36.2777 5.8122 36.4096C5.68034 36.5414 5.60626 36.7203 5.60626 36.9067C5.60626 37.0932 5.68034 37.2721 5.8122 37.4039C5.94406 37.5358 6.12291 37.6099 6.30939 37.6099C7.24147 37.6109 8.13507 37.9816 8.79415 38.6407C9.45323 39.2998 9.82396 40.1934 9.82501 41.1255ZM10.5281 35.221C10.9447 35.9116 11.5233 36.4902 12.2139 36.9067C11.5233 37.3233 10.9447 37.9019 10.5281 38.5925C10.1116 37.9019 9.53295 37.3233 8.84238 36.9067C9.53295 36.4902 10.1116 35.9116 10.5281 35.221Z" fill="#404040"/>
<path d="M34.2251 2.08888C35.7721 1.19572 37.6781 1.19572 39.2251 2.08888L65.835 17.4521C67.382 18.3453 68.335 19.9959 68.335 21.7823V52.5088C68.335 54.2951 67.382 55.9457 65.835 56.8389L39.2251 72.2021C37.6781 73.0953 35.7721 73.0953 34.2251 72.2021L7.61517 56.8389C6.06816 55.9457 5.11517 54.2951 5.11517 52.5088V21.7823C5.11517 19.9959 6.06816 18.3453 7.61517 17.4521L34.2251 2.08888Z" fill="#437FC8" fill-opacity="0.29"/>
</svg>
